<svg version="1" xmlns="http://www.w3.org/2000/svg" width="346.667" height="346.667" viewBox="0 0 260.000000 260.000000"><path d="M122.5 29.7c-18.4 1.9-33 7-48.1 16.9C59.9 56.1 47.9 69.8 40 85.8c-3.8 7.6-9 23.5-9 27.3 0 1.8-1 1.9-15.5 1.9H0v30H30.7l.7 4.2c1 6.2 6.3 21.2 9.8 27.7 7.7 14.3 20 27.8 33.3 36.6 35.3 23.3 79.5 22.5 114.1-2 12.8-9.1 26-25.1 32.7-39.6 2.8-6.1 7.7-21.9 7.7-25 0-1.8 1-1.9 15.5-1.9H260v-30h-30.5l-1.8-7.8c-7.9-34.9-35.1-63.5-69.9-73.6-11.2-3.2-25.8-4.8-35.3-3.9zm18.1 30.8c6.2.8 14.2 3.4 20.8 6.6 18 8.9 30.7 24.6 37.1 45.6l.6 2.3h-69c-38 0-69.1-.2-69.1-.5s1-3.3 2.2-6.7c11.3-32.7 42.8-52 77.4-47.3zm57.2 88.7c-.5 2.3-1.3 4.7-1.7 5.3-.5.5-1.2 2.1-1.6 3.4-1.3 4.4-7.5 13.9-12.6 19.5-19.6 21.5-50.7 28.7-77.7 18-3.7-1.5-7.9-3.5-9.4-4.5-1.4-1.1-3-1.9-3.5-1.9-1.5 0-14.1-11.9-17.7-16.9-4.4-6-8.9-15-10.9-21.9l-1.6-5.2h137.7l-1 4.2z"/></svg>