<?xml version="1.0" encoding="UTF-8"?>
<svg version="1.1" xmlns="http://www.w3.org/2000/svg" xmlns:xlink="http://www.w3.org/1999/xlink">
    <style>
        #dot-group {
            mix-blend-mode:overlay;
        }
    </style>

    <defs>
        <linearGradient x1="43.1982422%" y1="15.3511047%" x2="95.0911458%" y2="78.9730072%" id="linearGradient-1">
            <stop stop-color="#AE236A" offset="0%"></stop>
            <stop stop-color="#3812A0" offset="100%"></stop>
        </linearGradient>

        <mask id="n01">
            <rect x="0" y="0" width="100%" height="100%" fill="#fff"></rect>  
            <!-- 
                Nested SVG whaaaat!? Thanks Sara!
                https://www.sarasoueidan.com/blog/mimic-relative-positioning-in-svg/
             -->
            <svg class="svg-number" viewBox="0 0 320 376">
                <path d="M144.5,296.5 C144,311.5 141,325 135.5,336.5 C131,346.5 124,356 114,363.5 C104,371.5 90.5,376 72.5,376 C54.5,376 40.5,371.5 30.5,363.5 C20.5,356 14,346.5 9.5,336.5 C4,325 1,311.5 0.5,296.5 L0.5,80 C1,65.5 4,52 9.5,40.5 C14,30.5 20.5,20.5 30.5,13 C40.5,5.5 54.5,0.5 72.5,0.5 C90.5,0.5 104,5.5 114,13 C124,20.5 131,30.5 135.5,40.5 C141,52 144,65.5 144.5,80 L144.5,296.5 Z M90.5,80 C90.5,70 88.5,63 83.5,57 C81,54.5 77,53 72.5,53 C63,53 58.5,60 56.5,66.5 C55,70.5 54.5,75 54.5,80 L54.5,296.5 C54.5,307 57,314 62,319.5 C64.5,322 68,323.5 72.5,323.5 C82,323.5 86.5,317.5 88.5,310 C90,306.5 90.5,302 90.5,296.5 L90.5,80 Z M167,84 L167,49.5 C189.5,45 203,33.5 212.5,23.5 C217.5,17.5 221.5,11 224.5,4.5 L257,4.5 L257,372 L203,372 L203,84 L167,84 Z" fill="#000"></path>
                
            </svg>

            <svg class="svg-number" viewBox="0 0 320 376">
                <path d="M144.5,296.5 C144,311.5 141,325 135.5,336.5 C131,346.5 124,356 114,363.5 C104,371.5 90.5,376 72.5,376 C54.5,376 40.5,371.5 30.5,363.5 C20.5,356 14,346.5 9.5,336.5 C4,325 1,311.5 0.5,296.5 L0.5,80 C1,65.5 4,52 9.5,40.5 C14,30.5 20.5,20.5 30.5,13 C40.5,5.5 54.5,0.5 72.5,0.5 C90.5,0.5 104,5.5 114,13 C124,20.5 131,30.5 135.5,40.5 C141,52 144,65.5 144.5,80 L144.5,296.5 Z M90.5,80 C90.5,70 88.5,63 83.5,57 C81,54.5 77,53 72.5,53 C63,53 58.5,60 56.5,66.5 C55,70.5 54.5,75 54.5,80 L54.5,296.5 C54.5,307 57,314 62,319.5 C64.5,322 68,323.5 72.5,323.5 C82,323.5 86.5,317.5 88.5,310 C90,306.5 90.5,302 90.5,296.5 L90.5,80 Z M176,121 L176,95.5 C176,71 179.5,47 190,29.5 C200.5,12 218.5,0.5 248,0.5 C275.5,0.5 294,11 305,27 C316,43.5 320,66.5 320,92 C320,129.5 306,174 288.5,215.5 C270.5,257.5 249.5,295 235.5,318.5 L321,318.5 L321,372 L174.5,372 L174.5,318.5 C191,293 206,267 219.5,241 C231,219 242,194 250.5,168.5 C259,143 265.5,118 266,95.5 C266,85.5 265.5,74 263,65.5 C260.5,57 256,50.5 248,50.5 C240.5,50.5 236,56 233.5,64 C231,72.5 230,83.5 230,95.5 L230,121 L176,121 Z" fill="#000"></path>               
            </svg> 

            <svg class="svg-number" viewBox="0 0 320 376">
                <path d="M144.5,296.5 C144,311.5 141,325 135.5,336.5 C131,346.5 124,356 114,363.5 C104,371.5 90.5,376 72.5,376 C54.5,376 40.5,371.5 30.5,363.5 C20.5,356 14,346.5 9.5,336.5 C4,325 1,311.5 0.5,296.5 L0.5,80 C1,65.5 4,52 9.5,40.5 C14,30.5 20.5,20.5 30.5,13 C40.5,5.5 54.5,0.5 72.5,0.5 C90.5,0.5 104,5.5 114,13 C124,20.5 131,30.5 135.5,40.5 C141,52 144,65.5 144.5,80 L144.5,296.5 Z M90.5,80 C90.5,70 88.5,63 83.5,57 C81,54.5 77,53 72.5,53 C63,53 58.5,60 56.5,66.5 C55,70.5 54.5,75 54.5,80 L54.5,296.5 C54.5,307 57,314 62,319.5 C64.5,322 68,323.5 72.5,323.5 C82,323.5 86.5,317.5 88.5,310 C90,306.5 90.5,302 90.5,296.5 L90.5,80 Z M217,206 L217,161 C239.5,159.5 250,155 254.5,144.5 C257,139.5 258,133 258,125 L258,95.5 C258,85 258,73.5 256,64 C254,54.5 249.5,48 241,48 C234.5,48 230.5,51 228.5,60.5 C226,70.5 225,86 225,110.5 L172,110.5 C172,90 172.5,62 181.5,39.5 C190.5,17.5 207,0.5 241,0.5 C275,0.5 292.5,18 301.5,36.5 C310.5,55 311,75 311,79.5 C311,134 301.5,160 285,176.5 L284.5,177 C310.5,197.5 315.5,235.5 315.5,278 C315.5,279.5 315.5,283 315,288.5 C314.5,299 311.5,314.5 306,330.5 C300,346.5 290,361 274.5,369.5 C266.5,374 257,376 245.5,376 C211.5,376 194,359 184.5,336.5 C175,314.5 174,286.5 174,266 L227,266 C227,290.5 228.5,306 231.5,315.5 C234.5,325.5 239,328.5 245.5,328.5 C254,328.5 258.5,322 260.5,313 C262.5,304 262.5,292.5 262.5,282 C262.5,270.5 262.5,260 263,250.5 C263,232.5 259.5,220 248,212.5 C242,209 233,206.5 221.5,206 L217,206 Z" fill="#000"></path>               
            </svg> 

            <svg class="svg-number" viewBox="0 0 320 376">
                <path d="M144.5,296.5 C144,311.5 141,325 135.5,336.5 C131,346.5 124,356 114,363.5 C104,371.5 90.5,376 72.5,376 C54.5,376 40.5,371.5 30.5,363.5 C20.5,356 14,346.5 9.5,336.5 C4,325 1,311.5 0.5,296.5 L0.5,80 C1,65.5 4,52 9.5,40.5 C14,30.5 20.5,20.5 30.5,13 C40.5,5.5 54.5,0.5 72.5,0.5 C90.5,0.5 104,5.5 114,13 C124,20.5 131,30.5 135.5,40.5 C141,52 144,65.5 144.5,80 L144.5,296.5 Z M90.5,80 C90.5,70 88.5,63 83.5,57 C81,54.5 77,53 72.5,53 C63,53 58.5,60 56.5,66.5 C55,70.5 54.5,75 54.5,80 L54.5,296.5 C54.5,307 57,314 62,319.5 C64.5,322 68,323.5 72.5,323.5 C82,323.5 86.5,317.5 88.5,310 C90,306.5 90.5,302 90.5,296.5 L90.5,80 Z M250.5,292 L167,292 L167,244.5 L246,4.5 L300,4.5 L300,244.5 L325,244.5 L325,292 L300,292 L300,372 L250.5,372 L250.5,292 Z M213,244.5 L250.5,244.5 L250.5,118.5 L247.5,118.5 L244.5,129.5 L213,244.5 Z" fill="#000"></path>               
            </svg> 

            <svg class="svg-number" viewBox="0 0 320 376">
                <path d="M144.5,296.5 C144,311.5 141,325 135.5,336.5 C131,346.5 124,356 114,363.5 C104,371.5 90.5,376 72.5,376 C54.5,376 40.5,371.5 30.5,363.5 C20.5,356 14,346.5 9.5,336.5 C4,325 1,311.5 0.5,296.5 L0.5,80 C1,65.5 4,52 9.5,40.5 C14,30.5 20.5,20.5 30.5,13 C40.5,5.5 54.5,0.5 72.5,0.5 C90.5,0.5 104,5.5 114,13 C124,20.5 131,30.5 135.5,40.5 C141,52 144,65.5 144.5,80 L144.5,296.5 Z M90.5,80 C90.5,70 88.5,63 83.5,57 C81,54.5 77,53 72.5,53 C63,53 58.5,60 56.5,66.5 C55,70.5 54.5,75 54.5,80 L54.5,296.5 C54.5,307 57,314 62,319.5 C64.5,322 68,323.5 72.5,323.5 C82,323.5 86.5,317.5 88.5,310 C90,306.5 90.5,302 90.5,296.5 L90.5,80 Z M266,198 C266,182.5 260.5,171 249,171 C243,171 238,175.5 234,181 C230,187 228,194 228,198 L182.5,198 L182.5,4.5 L313,4.5 L313,58 L229,58 L229,134.5 C235,130 241.5,126 249,123.5 C252.5,122 256.5,121.5 260,122 C288,122 303,138 311,155.5 C319,173 320,192 320,198 L320,280 C320,297.5 319,321 309.5,340.5 C300,360.5 282,376 249.5,376 C216,376 199,360.5 189.5,338.5 C180,317 179,289.5 179,265 L233,265 L233,279.5 C233,298 234,311 236.5,318 C239,325.5 243,329 249.5,329 C255,329 259.5,325.5 262,318.5 C264.5,311.5 266,298.5 266,280 L266,198 Z" fill="#000"></path>               
            </svg> 

            <svg class="svg-number" viewBox="0 0 320 376">
                <path d="M144.5,296.5 C144,311.5 141,325 135.5,336.5 C131,346.5 124,356 114,363.5 C104,371.5 90.5,376 72.5,376 C54.5,376 40.5,371.5 30.5,363.5 C20.5,356 14,346.5 9.5,336.5 C4,325 1,311.5 0.5,296.5 L0.5,80 C1,65.5 4,52 9.5,40.5 C14,30.5 20.5,20.5 30.5,13 C40.5,5.5 54.5,0.5 72.5,0.5 C90.5,0.5 104,5.5 114,13 C124,20.5 131,30.5 135.5,40.5 C141,52 144,65.5 144.5,80 L144.5,296.5 Z M90.5,80 C90.5,70 88.5,63 83.5,57 C81,54.5 77,53 72.5,53 C63,53 58.5,60 56.5,66.5 C55,70.5 54.5,75 54.5,80 L54.5,296.5 C54.5,307 57,314 62,319.5 C64.5,322 68,323.5 72.5,323.5 C82,323.5 86.5,317.5 88.5,310 C90,306.5 90.5,302 90.5,296.5 L90.5,80 Z M318,296.5 C318,305 317,325 307.5,342.5 C298,360.5 280,376 247.5,376 C214,376 197,360.5 187.5,342.5 C178,325 177,305 177,296.5 L177,87.5 C177,75 177.5,52.5 187,34 C196.5,16 213.5,0.5 247.5,0.5 C281.5,0.5 298.5,16 308,34 C317.5,52.5 318,75 318,87.5 L318,110.5 L264,110.5 C264,86 263.5,70 261.5,60.5 C259.5,51 255.5,47.5 247.5,47.5 C241,47.5 236.5,50.5 234.5,57 C232,63.5 231,73.5 231,87.5 L231,153 C240.5,147.5 248.5,144 258,144 C286,144 301,158.5 309,175 C317,191.5 318,211.5 318,221.5 L318,296.5 Z M231,312.5 C231,317 235,329 247.5,329 C259,329 264,317 264,312.5 L264,202.5 C264,198 259,186 247.5,186 C236,186 231.5,195.5 231,201 L231,312.5 Z" fill="#000"></path>               
            </svg> 

            <svg class="svg-number" viewBox="0 0 320 376">
                <path d="M144.5,296.5 C144,311.5 141,325 135.5,336.5 C131,346.5 124,356 114,363.5 C104,371.5 90.5,376 72.5,376 C54.5,376 40.5,371.5 30.5,363.5 C20.5,356 14,346.5 9.5,336.5 C4,325 1,311.5 0.5,296.5 L0.5,80 C1,65.5 4,52 9.5,40.5 C14,30.5 20.5,20.5 30.5,13 C40.5,5.5 54.5,0.5 72.5,0.5 C90.5,0.5 104,5.5 114,13 C124,20.5 131,30.5 135.5,40.5 C141,52 144,65.5 144.5,80 L144.5,296.5 Z M90.5,80 C90.5,70 88.5,63 83.5,57 C81,54.5 77,53 72.5,53 C63,53 58.5,60 56.5,66.5 C55,70.5 54.5,75 54.5,80 L54.5,296.5 C54.5,307 57,314 62,319.5 C64.5,322 68,323.5 72.5,323.5 C82,323.5 86.5,317.5 88.5,310 C90,306.5 90.5,302 90.5,296.5 L90.5,80 Z M244,58 L163,58 L163,4.5 L299,4.5 L299,58.5 L245,372 L189,372 L244,58 Z" id="NUM-MASK-Copy-5" fill="#000"></path>               
            </svg> 

            <svg class="svg-number" viewBox="0 0 320 376">
                <path d="M144.5,296.5 C144,311.5 141,325 135.5,336.5 C131,346.5 124,356 114,363.5 C104,371.5 90.5,376 72.5,376 C54.5,376 40.5,371.5 30.5,363.5 C20.5,356 14,346.5 9.5,336.5 C4,325 1,311.5 0.5,296.5 L0.5,80 C1,65.5 4,52 9.5,40.5 C14,30.5 20.5,20.5 30.5,13 C40.5,5.5 54.5,0.5 72.5,0.5 C90.5,0.5 104,5.5 114,13 C124,20.5 131,30.5 135.5,40.5 C141,52 144,65.5 144.5,80 L144.5,296.5 Z M90.5,80 C90.5,70 88.5,63 83.5,57 C81,54.5 77,53 72.5,53 C63,53 58.5,60 56.5,66.5 C55,70.5 54.5,75 54.5,80 L54.5,296.5 C54.5,307 57,314 62,319.5 C64.5,322 68,323.5 72.5,323.5 C82,323.5 86.5,317.5 88.5,310 C90,306.5 90.5,302 90.5,296.5 L90.5,80 Z M318,293.5 C318,297 317.5,307 315,319 C312.5,331.5 306.5,345.5 296,356.5 C285.5,367.5 269.5,376 246,376 C222.5,376 206.5,367.5 196,356.5 C185.5,345.5 179.5,331.5 177,319 C174.5,307 174,297 174,293.5 L174,250.5 C174,223 183.5,195.5 202,178 C185.5,161.5 177,136 177,110.5 L177,79.5 C177,75 177.5,55 186.5,36.5 C195.5,18 212,0.5 246,0.5 C280,0.5 297,18 306,36.5 C315,55 315,75 315,79.5 L315,110.5 C315,136 306.5,161.5 290,178 C308.5,195.5 318,223 318,250.5 L318,293.5 Z M262,98.5 C262,81.5 261,69 259.5,60.5 C257.5,52 253,48 246,48 C240,48 236,51.5 234,59 C229.5,73.5 229,123 233,140.5 C234.5,149.5 239,154 246,154 C253,154 257.5,149.5 259.5,140.5 C261,132 262,118 262,98.5 L262,98.5 Z M265.5,272 C265.5,250 264.5,233.5 263,223 C261,212.5 255.5,207 246,207 C236.5,207 231,212.5 229.5,223 C225.5,244.5 226,298 231,314 C233.5,322.5 238.5,326.5 246,326.5 C255.5,326.5 261,321.5 263,312 C264.5,302.5 265.5,289 265.5,272 L265.5,272 Z" fill="#000"></path>               
            </svg> 

            <svg class="svg-number" viewBox="0 0 320 376">
                <path d="M144.5,296.5 C144,311.5 141,325 135.5,336.5 C131,346.5 124,356 114,363.5 C104,371.5 90.5,376 72.5,376 C54.5,376 40.5,371.5 30.5,363.5 C20.5,356 14,346.5 9.5,336.5 C4,325 1,311.5 0.5,296.5 L0.5,80 C1,65.5 4,52 9.5,40.5 C14,30.5 20.5,20.5 30.5,13 C40.5,5.5 54.5,0.5 72.5,0.5 C90.5,0.5 104,5.5 114,13 C124,20.5 131,30.5 135.5,40.5 C141,52 144,65.5 144.5,80 L144.5,296.5 Z M90.5,80 C90.5,70 88.5,63 83.5,57 C81,54.5 77,53 72.5,53 C63,53 58.5,60 56.5,66.5 C55,70.5 54.5,75 54.5,80 L54.5,296.5 C54.5,307 57,314 62,319.5 C64.5,322 68,323.5 72.5,323.5 C82,323.5 86.5,317.5 88.5,310 C90,306.5 90.5,302 90.5,296.5 L90.5,80 Z M175,80 C175,71.5 176,51.5 185.5,33.5 C195,16 212,0.5 245.5,0.5 C278,0.5 296,16 305.5,33.5 C315,51.5 316,71.5 316,80 L316,289 C316,302.5 315.5,324 306,342 C296.5,360.5 279.5,376 245.5,376 C211.5,376 194.5,360.5 185,342 C175.5,324 175,302.5 175,289 L175,266 L229,266 C229,290.5 229.5,306.5 231.5,316 C233.5,325.5 237.5,329 245.5,329 C252,329 256.5,326 259,319.5 C261,313 262,303 262,289 L262,220 C252.5,225.5 244.5,229 235,229 C207,229 192,214.5 184,198 C176,181.5 175,161.5 175,151.5 L175,80 Z M262,64 C262,59.5 258,47.5 245.5,47.5 C234,47.5 229,59.5 229,64 L229,170.5 C229,175 234,187 245.5,187 C257,187 261.5,177.5 262,172 L262,64 Z" fill="#000"></path>               
            </svg> 

            <svg class="svg-number" viewBox="0 0 320 376">
                <path d="M0,84 L0,49.5 C22.5,45 36,33.5 45.5,23.5 C50.5,17.5 54.5,11 57.5,4.5 L90,4.5 L90,372 L36,372 L36,84 L0,84 Z M270.5,296.5 C270,311.5 267,325 261.5,336.5 C257,346.5 250,356 240,363.5 C230,371.5 216.5,376 198.5,376 C180.5,376 166.5,371.5 156.5,363.5 C146.5,356 140,346.5 135.5,336.5 C130,325 127,311.5 126.5,296.5 L126.5,80 C127,65.5 130,52 135.5,40.5 C140,30.5 146.5,20.5 156.5,13 C166.5,5.5 180.5,0.5 198.5,0.5 C216.5,0.5 230,5.5 240,13 C250,20.5 257,30.5 261.5,40.5 C267,52 270,65.5 270.5,80 L270.5,296.5 Z M216.5,80 C216.5,70 214.5,63 209.5,57 C207,54.5 203,53 198.5,53 C189,53 184.5,60 182.5,66.5 C181,70.5 180.5,75 180.5,80 L180.5,296.5 C180.5,307 183,314 188,319.5 C190.5,322 194,323.5 198.5,323.5 C208,323.5 212.5,317.5 214.5,310 C216,306.5 216.5,302 216.5,296.5 L216.5,80 Z" fill="#000"></path>               
            </svg> 

            <svg class="svg-number" viewBox="0 0 320 376">
                <path d="M0,80 L0,45.5 C22.5,41 36,29.5 45.5,19.5 C50.5,13.5 54.5,7 57.5,0.5 L90,0.5 L90,368 L36,368 L36,80 L0,80 Z M116,80 L116,45.5 C138.5,41 152,29.5 161.5,19.5 C166.5,13.5 170.5,7 173.5,0.5 L206,0.5 L206,368 L152,368 L152,80 L116,80 Z" fill="#000"></path>               
            </svg> 

            <svg class="svg-number" viewBox="0 0 320 376">
                <path d="M0,84 L0,49.5 C22.5,45 36,33.5 45.5,23.5 C50.5,17.5 54.5,11 57.5,4.5 L90,4.5 L90,372 L36,372 L36,84 L0,84 Z M125,121 L125,95.5 C125,71 128.5,47 139,29.5 C149.5,12 167.5,0.5 197,0.5 C224.5,0.5 243,11 254,27 C265,43.5 269,66.5 269,92 C269,129.5 255,174 237.5,215.5 C219.5,257.5 198.5,295 184.5,318.5 L270,318.5 L270,372 L123.5,372 L123.5,318.5 C140,293 155,267 168.5,241 C180,219 191,194 199.5,168.5 C208,143 214.5,118 215,95.5 C215,85.5 214.5,74 212,65.5 C209.5,57 205,50.5 197,50.5 C189.5,50.5 185,56 182.5,64 C180,72.5 179,83.5 179,95.5 L179,121 L125,121 Z" fill="#000"></path>               
            </svg> 
        </mask>

        <filter id="Multiply">
      <feBlend mode="multiply" in2="BackgroundImage" in="SourceGraphic"/>
    </filter>
    </defs>

    <g fill="url(#linearGradient-1)" mask="url(#n01)">
        <rect id="BG" x="0" y="0" width="100%" height="100%"></rect>

        <g id="dot-group" transform="translate(120.000000, 120.000000)" fill="#999">
            <g id="Group-3">
                <circle cx="50" cy="50" r="50"></circle>
                <circle cx="200" cy="50" r="50"></circle>
                <circle cx="350" cy="50" r="50"></circle>
                <circle cx="500" cy="50" r="50"></circle>
                <circle cx="650" cy="50" r="50"></circle>
                <circle cx="800" cy="50" r="50"></circle>
                <circle cx="950" cy="50" r="50"></circle>
                <circle cx="1100" cy="50" r="50"></circle>
                <circle cx="1250" cy="50" r="50"></circle>
                <circle cx="1400" cy="50" r="50"></circle>
                <circle cx="1550" cy="50" r="50"></circle>
                <circle cx="1700" cy="50" r="50"></circle>
                <circle cx="1850" cy="50" r="50"></circle>
                <circle cx="2000" cy="50" r="50"></circle>
                <circle cx="2150" cy="50" r="50"></circle>
                <circle cx="2300" cy="50" r="50"></circle>
                <circle cx="2450" cy="50" r="50"></circle>
                <circle cx="2600" cy="50" r="50"></circle>
            </g>
            <g id="Group-3-Copy" transform="translate(0.000000, 150.000000)">
                <circle cx="50" cy="50" r="50"></circle>
                <circle cx="200" cy="50" r="50"></circle>
                <circle cx="350" cy="50" r="50"></circle>
                <circle cx="500" cy="50" r="50"></circle>
                <circle cx="650" cy="50" r="50"></circle>
                <circle cx="800" cy="50" r="50"></circle>
                <circle cx="950" cy="50" r="50"></circle>
                <circle cx="1100" cy="50" r="50"></circle>
                <circle cx="1250" cy="50" r="50"></circle>
                <circle cx="1400" cy="50" r="50"></circle>
                <circle cx="1550" cy="50" r="50"></circle>
                <circle cx="1700" cy="50" r="50"></circle>
                <circle cx="1850" cy="50" r="50"></circle>
                <circle cx="2000" cy="50" r="50"></circle>
                <circle cx="2150" cy="50" r="50"></circle>
                <circle cx="2300" cy="50" r="50"></circle>
                <circle cx="2450" cy="50" r="50"></circle>
                <circle cx="2600" cy="50" r="50"></circle>
            </g>
            <g id="Group-3-Copy-2" transform="translate(0.000000, 300.000000)">
                <circle cx="50" cy="50" r="50"></circle>
                <circle cx="200" cy="50" r="50"></circle>
                <circle cx="350" cy="50" r="50"></circle>
                <circle cx="500" cy="50" r="50"></circle>
                <circle cx="650" cy="50" r="50"></circle>
                <circle cx="800" cy="50" r="50"></circle>
                <circle cx="950" cy="50" r="50"></circle>
                <circle cx="1100" cy="50" r="50"></circle>
                <circle cx="1250" cy="50" r="50"></circle>
                <circle cx="1400" cy="50" r="50"></circle>
                <circle cx="1550" cy="50" r="50"></circle>
                <circle cx="1700" cy="50" r="50"></circle>
                <circle cx="1850" cy="50" r="50"></circle>
                <circle cx="2000" cy="50" r="50"></circle>
                <circle cx="2150" cy="50" r="50"></circle>
                <circle cx="2300" cy="50" r="50"></circle>
                <circle cx="2450" cy="50" r="50"></circle>
                <circle cx="2600" cy="50" r="50"></circle>
            </g>
            <g id="Group-3-Copy-3" transform="translate(0.000000, 450.000000)">
                <circle cx="50" cy="50" r="50"></circle>
                <circle cx="200" cy="50" r="50"></circle>
                <circle cx="350" cy="50" r="50"></circle>
                <circle cx="500" cy="50" r="50"></circle>
                <circle cx="650" cy="50" r="50"></circle>
                <circle cx="800" cy="50" r="50"></circle>
                <circle cx="950" cy="50" r="50"></circle>
                <circle cx="1100" cy="50" r="50"></circle>
                <circle cx="1250" cy="50" r="50"></circle>
                <circle cx="1400" cy="50" r="50"></circle>
                <circle cx="1550" cy="50" r="50"></circle>
                <circle cx="1700" cy="50" r="50"></circle>
                <circle cx="1850" cy="50" r="50"></circle>
                <circle cx="2000" cy="50" r="50"></circle>
                <circle cx="2150" cy="50" r="50"></circle>
                <circle cx="2300" cy="50" r="50"></circle>
                <circle cx="2450" cy="50" r="50"></circle>
                <circle cx="2600" cy="50" r="50"></circle>
            </g>
            <g id="Group-3-Copy-4" transform="translate(0.000000, 600.000000)">
                <circle cx="50" cy="50" r="50"></circle>
                <circle cx="200" cy="50" r="50"></circle>
                <circle cx="350" cy="50" r="50"></circle>
                <circle cx="500" cy="50" r="50"></circle>
                <circle cx="650" cy="50" r="50"></circle>
                <circle cx="800" cy="50" r="50"></circle>
                <circle cx="950" cy="50" r="50"></circle>
                <circle cx="1100" cy="50" r="50"></circle>
                <circle cx="1250" cy="50" r="50"></circle>
                <circle cx="1400" cy="50" r="50"></circle>
                <circle cx="1550" cy="50" r="50"></circle>
                <circle cx="1700" cy="50" r="50"></circle>
                <circle cx="1850" cy="50" r="50"></circle>
                <circle cx="2000" cy="50" r="50"></circle>
                <circle cx="2150" cy="50" r="50"></circle>
                <circle cx="2300" cy="50" r="50"></circle>
                <circle cx="2450" cy="50" r="50"></circle>
                <circle cx="2600" cy="50" r="50"></circle>
            </g>
            <g id="Group-3-Copy-5" transform="translate(0.000000, 750.000000)">
                <circle cx="50" cy="50" r="50"></circle>
                <circle cx="200" cy="50" r="50"></circle>
                <circle cx="350" cy="50" r="50"></circle>
                <circle cx="500" cy="50" r="50"></circle>
                <circle cx="650" cy="50" r="50"></circle>
                <circle cx="800" cy="50" r="50"></circle>
                <circle cx="950" cy="50" r="50"></circle>
                <circle cx="1100" cy="50" r="50"></circle>
                <circle cx="1250" cy="50" r="50"></circle>
                <circle cx="1400" cy="50" r="50"></circle>
                <circle cx="1550" cy="50" r="50"></circle>
                <circle cx="1700" cy="50" r="50"></circle>
                <circle cx="1850" cy="50" r="50"></circle>
                <circle cx="2000" cy="50" r="50"></circle>
                <circle cx="2150" cy="50" r="50"></circle>
                <circle cx="2300" cy="50" r="50"></circle>
                <circle cx="2450" cy="50" r="50"></circle>
                <circle cx="2600" cy="50" r="50"></circle>
            </g>
            <g id="Group-3-Copy-6" transform="translate(0.000000, 900.000000)">
                <circle cx="50" cy="50" r="50"></circle>
                <circle cx="200" cy="50" r="50"></circle>
                <circle cx="350" cy="50" r="50"></circle>
                <circle cx="500" cy="50" r="50"></circle>
                <circle cx="650" cy="50" r="50"></circle>
                <circle cx="800" cy="50" r="50"></circle>
                <circle cx="950" cy="50" r="50"></circle>
                <circle cx="1100" cy="50" r="50"></circle>
                <circle cx="1250" cy="50" r="50"></circle>
                <circle cx="1400" cy="50" r="50"></circle>
                <circle cx="1550" cy="50" r="50"></circle>
                <circle cx="1700" cy="50" r="50"></circle>
                <circle cx="1850" cy="50" r="50"></circle>
                <circle cx="2000" cy="50" r="50"></circle>
                <circle cx="2150" cy="50" r="50"></circle>
                <circle cx="2300" cy="50" r="50"></circle>
                <circle cx="2450" cy="50" r="50"></circle>
                <circle cx="2600" cy="50" r="50"></circle>
            </g>
            <g id="Group-3-Copy-7" transform="translate(0.000000, 1050.000000)">
                <circle cx="50" cy="50" r="50"></circle>
                <circle cx="200" cy="50" r="50"></circle>
                <circle cx="350" cy="50" r="50"></circle>
                <circle cx="500" cy="50" r="50"></circle>
                <circle cx="650" cy="50" r="50"></circle>
                <circle cx="800" cy="50" r="50"></circle>
                <circle cx="950" cy="50" r="50"></circle>
                <circle cx="1100" cy="50" r="50"></circle>
                <circle cx="1250" cy="50" r="50"></circle>
                <circle cx="1400" cy="50" r="50"></circle>
                <circle cx="1550" cy="50" r="50"></circle>
                <circle cx="1700" cy="50" r="50"></circle>
                <circle cx="1850" cy="50" r="50"></circle>
                <circle cx="2000" cy="50" r="50"></circle>
                <circle cx="2150" cy="50" r="50"></circle>
                <circle cx="2300" cy="50" r="50"></circle>
                <circle cx="2450" cy="50" r="50"></circle>
                <circle cx="2600" cy="50" r="50"></circle>
            </g>

            <g transform="translate(0.000000, 1200.000000)">
                <circle cx="50" cy="50" r="50"></circle>
                <circle cx="200" cy="50" r="50"></circle>
                <circle cx="350" cy="50" r="50"></circle>
                <circle cx="500" cy="50" r="50"></circle>
                <circle cx="650" cy="50" r="50"></circle>
                <circle cx="800" cy="50" r="50"></circle>
                <circle cx="950" cy="50" r="50"></circle>
                <circle cx="1100" cy="50" r="50"></circle>
                <circle cx="1250" cy="50" r="50"></circle>
                <circle cx="1400" cy="50" r="50"></circle>
                <circle cx="1550" cy="50" r="50"></circle>
                <circle cx="1700" cy="50" r="50"></circle>
                <circle cx="1850" cy="50" r="50"></circle>
                <circle cx="2000" cy="50" r="50"></circle>
                <circle cx="2150" cy="50" r="50"></circle>
                <circle cx="2300" cy="50" r="50"></circle>
                <circle cx="2450" cy="50" r="50"></circle>
                <circle cx="2600" cy="50" r="50"></circle>
            </g>

            <g transform="translate(0.000000, 1350.000000)">
                <circle cx="50" cy="50" r="50"></circle>
                <circle cx="200" cy="50" r="50"></circle>
                <circle cx="350" cy="50" r="50"></circle>
                <circle cx="500" cy="50" r="50"></circle>
                <circle cx="650" cy="50" r="50"></circle>
                <circle cx="800" cy="50" r="50"></circle>
                <circle cx="950" cy="50" r="50"></circle>
                <circle cx="1100" cy="50" r="50"></circle>
                <circle cx="1250" cy="50" r="50"></circle>
                <circle cx="1400" cy="50" r="50"></circle>
                <circle cx="1550" cy="50" r="50"></circle>
                <circle cx="1700" cy="50" r="50"></circle>
                <circle cx="1850" cy="50" r="50"></circle>
                <circle cx="2000" cy="50" r="50"></circle>
                <circle cx="2150" cy="50" r="50"></circle>
                <circle cx="2300" cy="50" r="50"></circle>
                <circle cx="2450" cy="50" r="50"></circle>
                <circle cx="2600" cy="50" r="50"></circle>
            </g>
        </g>
    </g>
</svg>