<?xml version="1.0" encoding="UTF-8"?>
<svg width="322px" height="376px" viewBox="0 0 322 376" version="1.1" xmlns="http://www.w3.org/2000/svg" xmlns:xlink="http://www.w3.org/1999/xlink">
    <!-- Generator: Sketch 39.1 (31720) - http://www.bohemiancoding.com/sketch -->
    <title>NUM MASK Copy 16</title>
    <desc>Created with Sketch.</desc>
    <defs></defs>
    <g id="Home" stroke="none" stroke-width="1" fill="none" fill-rule="evenodd">
        <path d="M144.5,296.5 C144,311.5 141,325 135.5,336.5 C131,346.5 124,356 114,363.5 C104,371.5 90.5,376 72.5,376 C54.5,376 40.5,371.5 30.5,363.5 C20.5,356 14,346.5 9.5,336.5 C4,325 1,311.5 0.5,296.5 L0.5,80 C1,65.5 4,52 9.5,40.5 C14,30.5 20.5,20.5 30.5,13 C40.5,5.5 54.5,0.5 72.5,0.5 C90.5,0.5 104,5.5 114,13 C124,20.5 131,30.5 135.5,40.5 C141,52 144,65.5 144.5,80 L144.5,296.5 Z M90.5,80 C90.5,70 88.5,63 83.5,57 C81,54.5 77,53 72.5,53 C63,53 58.5,60 56.5,66.5 C55,70.5 54.5,75 54.5,80 L54.5,296.5 C54.5,307 57,314 62,319.5 C64.5,322 68,323.5 72.5,323.5 C82,323.5 86.5,317.5 88.5,310 C90,306.5 90.5,302 90.5,296.5 L90.5,80 Z M321.5,296.5 C321,311.5 318,325 312.5,336.5 C308,346.5 301,356 291,363.5 C281,371.5 267.5,376 249.5,376 C231.5,376 217.5,371.5 207.5,363.5 C197.5,356 191,346.5 186.5,336.5 C181,325 178,311.5 177.5,296.5 L177.5,80 C178,65.5 181,52 186.5,40.5 C191,30.5 197.5,20.5 207.5,13 C217.5,5.5 231.5,0.5 249.5,0.5 C267.5,0.5 281,5.5 291,13 C301,20.5 308,30.5 312.5,40.5 C318,52 321,65.5 321.5,80 L321.5,296.5 Z M267.5,80 C267.5,70 265.5,63 260.5,57 C258,54.5 254,53 249.5,53 C240,53 235.5,60 233.5,66.5 C232,70.5 231.5,75 231.5,80 L231.5,296.5 C231.5,307 234,314 239,319.5 C241.5,322 245,323.5 249.5,323.5 C259,323.5 263.5,317.5 265.5,310 C267,306.5 267.5,302 267.5,296.5 L267.5,80 Z" id="NUM-MASK-Copy-16" fill="#FFFFFF"></path>
    </g>
</svg>