<?xml version="1.0" encoding="UTF-8"?>
<svg width="321px" height="376px" viewBox="0 0 321 376" version="1.1" xmlns="http://www.w3.org/2000/svg" xmlns:xlink="http://www.w3.org/1999/xlink">
    <!-- Generator: Sketch 39.1 (31720) - http://www.bohemiancoding.com/sketch -->
    <title>NUM MASK</title>
    <desc>Created with Sketch.</desc>
    <defs></defs>
    <g id="Home" stroke="none" stroke-width="1" fill="none" fill-rule="evenodd">
        <path d="M144.5,296.5 C144,311.5 141,325 135.5,336.5 C131,346.5 124,356 114,363.5 C104,371.5 90.5,376 72.5,376 C54.5,376 40.5,371.5 30.5,363.5 C20.5,356 14,346.5 9.5,336.5 C4,325 1,311.5 0.5,296.5 L0.5,80 C1,65.5 4,52 9.5,40.5 C14,30.5 20.5,20.5 30.5,13 C40.5,5.5 54.5,0.5 72.5,0.5 C90.5,0.5 104,5.5 114,13 C124,20.5 131,30.5 135.5,40.5 C141,52 144,65.5 144.5,80 L144.5,296.5 Z M90.5,80 C90.5,70 88.5,63 83.5,57 C81,54.5 77,53 72.5,53 C63,53 58.5,60 56.5,66.5 C55,70.5 54.5,75 54.5,80 L54.5,296.5 C54.5,307 57,314 62,319.5 C64.5,322 68,323.5 72.5,323.5 C82,323.5 86.5,317.5 88.5,310 C90,306.5 90.5,302 90.5,296.5 L90.5,80 Z M176,121 L176,95.5 C176,71 179.5,47 190,29.5 C200.5,12 218.5,0.5 248,0.5 C275.5,0.5 294,11 305,27 C316,43.5 320,66.5 320,92 C320,129.5 306,174 288.5,215.5 C270.5,257.5 249.5,295 235.5,318.5 L321,318.5 L321,372 L174.5,372 L174.5,318.5 C191,293 206,267 219.5,241 C231,219 242,194 250.5,168.5 C259,143 265.5,118 266,95.5 C266,85.5 265.5,74 263,65.5 C260.5,57 256,50.5 248,50.5 C240.5,50.5 236,56 233.5,64 C231,72.5 230,83.5 230,95.5 L230,121 L176,121 Z" fill="#FFFFFF"></path>
    </g>
</svg>