<?xml version="1.0" encoding="UTF-8"?>
<svg width="316px" height="376px" viewBox="0 0 316 376" version="1.1" xmlns="http://www.w3.org/2000/svg" xmlns:xlink="http://www.w3.org/1999/xlink">
    <!-- Generator: Sketch 39.1 (31720) - http://www.bohemiancoding.com/sketch -->
    <title>NUM MASK Copy 2</title>
    <desc>Created with Sketch.</desc>
    <defs></defs>
    <g id="Home" stroke="none" stroke-width="1" fill="none" fill-rule="evenodd">
        <path d="M144.5,296.5 C144,311.5 141,325 135.5,336.5 C131,346.5 124,356 114,363.5 C104,371.5 90.5,376 72.5,376 C54.5,376 40.5,371.5 30.5,363.5 C20.5,356 14,346.5 9.5,336.5 C4,325 1,311.5 0.5,296.5 L0.5,80 C1,65.5 4,52 9.5,40.5 C14,30.5 20.5,20.5 30.5,13 C40.5,5.5 54.5,0.5 72.5,0.5 C90.5,0.5 104,5.5 114,13 C124,20.5 131,30.5 135.5,40.5 C141,52 144,65.5 144.5,80 L144.5,296.5 Z M90.5,80 C90.5,70 88.5,63 83.5,57 C81,54.5 77,53 72.5,53 C63,53 58.5,60 56.5,66.5 C55,70.5 54.5,75 54.5,80 L54.5,296.5 C54.5,307 57,314 62,319.5 C64.5,322 68,323.5 72.5,323.5 C82,323.5 86.5,317.5 88.5,310 C90,306.5 90.5,302 90.5,296.5 L90.5,80 Z M217,206 L217,161 C239.5,159.5 250,155 254.5,144.5 C257,139.5 258,133 258,125 L258,95.5 C258,85 258,73.5 256,64 C254,54.5 249.5,48 241,48 C234.5,48 230.5,51 228.5,60.5 C226,70.5 225,86 225,110.5 L172,110.5 C172,90 172.5,62 181.5,39.5 C190.5,17.5 207,0.5 241,0.5 C275,0.5 292.5,18 301.5,36.5 C310.5,55 311,75 311,79.5 C311,134 301.5,160 285,176.5 L284.5,177 C310.5,197.5 315.5,235.5 315.5,278 C315.5,279.5 315.5,283 315,288.5 C314.5,299 311.5,314.5 306,330.5 C300,346.5 290,361 274.5,369.5 C266.5,374 257,376 245.5,376 C211.5,376 194,359 184.5,336.5 C175,314.5 174,286.5 174,266 L227,266 C227,290.5 228.5,306 231.5,315.5 C234.5,325.5 239,328.5 245.5,328.5 C254,328.5 258.5,322 260.5,313 C262.5,304 262.5,292.5 262.5,282 C262.5,270.5 262.5,260 263,250.5 C263,232.5 259.5,220 248,212.5 C242,209 233,206.5 221.5,206 L217,206 Z" id="NUM-MASK-Copy-2" fill="#FFFFFF"></path>
    </g>
</svg>