<?xml version="1.0" encoding="UTF-8"?>
<svg width="325px" height="376px" viewBox="0 0 325 376" version="1.1" xmlns="http://www.w3.org/2000/svg" xmlns:xlink="http://www.w3.org/1999/xlink">
    <!-- Generator: Sketch 39.1 (31720) - http://www.bohemiancoding.com/sketch -->
    <title>NUM MASK Copy 3</title>
    <desc>Created with Sketch.</desc>
    <defs></defs>
    <g id="Home" stroke="none" stroke-width="1" fill="none" fill-rule="evenodd">
        <path d="M144.5,296.5 C144,311.5 141,325 135.5,336.5 C131,346.5 124,356 114,363.5 C104,371.5 90.5,376 72.5,376 C54.5,376 40.5,371.5 30.5,363.5 C20.5,356 14,346.5 9.5,336.5 C4,325 1,311.5 0.5,296.5 L0.5,80 C1,65.5 4,52 9.5,40.5 C14,30.5 20.5,20.5 30.5,13 C40.5,5.5 54.5,0.5 72.5,0.5 C90.5,0.5 104,5.5 114,13 C124,20.5 131,30.5 135.5,40.5 C141,52 144,65.5 144.5,80 L144.5,296.5 Z M90.5,80 C90.5,70 88.5,63 83.5,57 C81,54.5 77,53 72.5,53 C63,53 58.5,60 56.5,66.5 C55,70.5 54.5,75 54.5,80 L54.5,296.5 C54.5,307 57,314 62,319.5 C64.5,322 68,323.5 72.5,323.5 C82,323.5 86.5,317.5 88.5,310 C90,306.5 90.5,302 90.5,296.5 L90.5,80 Z M250.5,292 L167,292 L167,244.5 L246,4.5 L300,4.5 L300,244.5 L325,244.5 L325,292 L300,292 L300,372 L250.5,372 L250.5,292 Z M213,244.5 L250.5,244.5 L250.5,118.5 L247.5,118.5 L244.5,129.5 L213,244.5 Z" id="NUM-MASK-Copy-3" fill="#FFFFFF"></path>
    </g>
</svg>