<?xml version="1.0" encoding="UTF-8"?>
<svg width="320px" height="376px" viewBox="0 0 320 376" version="1.1" xmlns="http://www.w3.org/2000/svg" xmlns:xlink="http://www.w3.org/1999/xlink">
    <!-- Generator: Sketch 39.1 (31720) - http://www.bohemiancoding.com/sketch -->
    <title>NUM MASK Copy 4</title>
    <desc>Created with Sketch.</desc>
    <defs></defs>
    <g id="Home" stroke="none" stroke-width="1" fill="none" fill-rule="evenodd">
        <path d="M144.5,296.5 C144,311.5 141,325 135.5,336.5 C131,346.5 124,356 114,363.5 C104,371.5 90.5,376 72.5,376 C54.5,376 40.5,371.5 30.5,363.5 C20.5,356 14,346.5 9.5,336.5 C4,325 1,311.5 0.5,296.5 L0.5,80 C1,65.5 4,52 9.5,40.5 C14,30.5 20.5,20.5 30.5,13 C40.5,5.5 54.5,0.5 72.5,0.5 C90.5,0.5 104,5.5 114,13 C124,20.5 131,30.5 135.5,40.5 C141,52 144,65.5 144.5,80 L144.5,296.5 Z M90.5,80 C90.5,70 88.5,63 83.5,57 C81,54.5 77,53 72.5,53 C63,53 58.5,60 56.5,66.5 C55,70.5 54.5,75 54.5,80 L54.5,296.5 C54.5,307 57,314 62,319.5 C64.5,322 68,323.5 72.5,323.5 C82,323.5 86.5,317.5 88.5,310 C90,306.5 90.5,302 90.5,296.5 L90.5,80 Z M266,198 C266,182.5 260.5,171 249,171 C243,171 238,175.5 234,181 C230,187 228,194 228,198 L182.5,198 L182.5,4.5 L313,4.5 L313,58 L229,58 L229,134.5 C235,130 241.5,126 249,123.5 C252.5,122 256.5,121.5 260,122 C288,122 303,138 311,155.5 C319,173 320,192 320,198 L320,280 C320,297.5 319,321 309.5,340.5 C300,360.5 282,376 249.5,376 C216,376 199,360.5 189.5,338.5 C180,317 179,289.5 179,265 L233,265 L233,279.5 C233,298 234,311 236.5,318 C239,325.5 243,329 249.5,329 C255,329 259.5,325.5 262,318.5 C264.5,311.5 266,298.5 266,280 L266,198 Z" id="NUM-MASK-Copy-4" fill="#FFFFFF"></path>
    </g>
</svg>