<?xml version="1.0" encoding="UTF-8"?>
<svg width="318px" height="376px" viewBox="0 0 318 376" version="1.1" xmlns="http://www.w3.org/2000/svg" xmlns:xlink="http://www.w3.org/1999/xlink">
    <!-- Generator: Sketch 39.1 (31720) - http://www.bohemiancoding.com/sketch -->
    <title>NUM MASK Copy 9</title>
    <desc>Created with Sketch.</desc>
    <defs></defs>
    <g id="Home" stroke="none" stroke-width="1" fill="none" fill-rule="evenodd">
        <path d="M144.5,296.5 C144,311.5 141,325 135.5,336.5 C131,346.5 124,356 114,363.5 C104,371.5 90.5,376 72.5,376 C54.5,376 40.5,371.5 30.5,363.5 C20.5,356 14,346.5 9.5,336.5 C4,325 1,311.5 0.5,296.5 L0.5,80 C1,65.5 4,52 9.5,40.5 C14,30.5 20.5,20.5 30.5,13 C40.5,5.5 54.5,0.5 72.5,0.5 C90.5,0.5 104,5.5 114,13 C124,20.5 131,30.5 135.5,40.5 C141,52 144,65.5 144.5,80 L144.5,296.5 Z M90.5,80 C90.5,70 88.5,63 83.5,57 C81,54.5 77,53 72.5,53 C63,53 58.5,60 56.5,66.5 C55,70.5 54.5,75 54.5,80 L54.5,296.5 C54.5,307 57,314 62,319.5 C64.5,322 68,323.5 72.5,323.5 C82,323.5 86.5,317.5 88.5,310 C90,306.5 90.5,302 90.5,296.5 L90.5,80 Z M318,296.5 C318,305 317,325 307.5,342.5 C298,360.5 280,376 247.5,376 C214,376 197,360.5 187.5,342.5 C178,325 177,305 177,296.5 L177,87.5 C177,75 177.5,52.5 187,34 C196.5,16 213.5,0.5 247.5,0.5 C281.5,0.5 298.5,16 308,34 C317.5,52.5 318,75 318,87.5 L318,110.5 L264,110.5 C264,86 263.5,70 261.5,60.5 C259.5,51 255.5,47.5 247.5,47.5 C241,47.5 236.5,50.5 234.5,57 C232,63.5 231,73.5 231,87.5 L231,153 C240.5,147.5 248.5,144 258,144 C286,144 301,158.5 309,175 C317,191.5 318,211.5 318,221.5 L318,296.5 Z M231,312.5 C231,317 235,329 247.5,329 C259,329 264,317 264,312.5 L264,202.5 C264,198 259,186 247.5,186 C236,186 231.5,195.5 231,201 L231,312.5 Z" id="NUM-MASK-Copy-9" fill="#FFFFFF"></path>
    </g>
</svg>