<?xml version="1.0" encoding="UTF-8"?>
<svg width="318px" height="376px" viewBox="0 0 318 376" version="1.1" xmlns="http://www.w3.org/2000/svg" xmlns:xlink="http://www.w3.org/1999/xlink">
    <!-- Generator: Sketch 39.1 (31720) - http://www.bohemiancoding.com/sketch -->
    <title>NUM MASK Copy 6</title>
    <desc>Created with Sketch.</desc>
    <defs></defs>
    <g id="Home" stroke="none" stroke-width="1" fill="none" fill-rule="evenodd">
        <path d="M144.5,296.5 C144,311.5 141,325 135.5,336.5 C131,346.5 124,356 114,363.5 C104,371.5 90.5,376 72.5,376 C54.5,376 40.5,371.5 30.5,363.5 C20.5,356 14,346.5 9.5,336.5 C4,325 1,311.5 0.5,296.5 L0.5,80 C1,65.5 4,52 9.5,40.5 C14,30.5 20.5,20.5 30.5,13 C40.5,5.5 54.5,0.5 72.5,0.5 C90.5,0.5 104,5.5 114,13 C124,20.5 131,30.5 135.5,40.5 C141,52 144,65.5 144.5,80 L144.5,296.5 Z M90.5,80 C90.5,70 88.5,63 83.5,57 C81,54.5 77,53 72.5,53 C63,53 58.5,60 56.5,66.5 C55,70.5 54.5,75 54.5,80 L54.5,296.5 C54.5,307 57,314 62,319.5 C64.5,322 68,323.5 72.5,323.5 C82,323.5 86.5,317.5 88.5,310 C90,306.5 90.5,302 90.5,296.5 L90.5,80 Z M318,293.5 C318,297 317.5,307 315,319 C312.5,331.5 306.5,345.5 296,356.5 C285.5,367.5 269.5,376 246,376 C222.5,376 206.5,367.5 196,356.5 C185.5,345.5 179.5,331.5 177,319 C174.5,307 174,297 174,293.5 L174,250.5 C174,223 183.5,195.5 202,178 C185.5,161.5 177,136 177,110.5 L177,79.5 C177,75 177.5,55 186.5,36.5 C195.5,18 212,0.5 246,0.5 C280,0.5 297,18 306,36.5 C315,55 315,75 315,79.5 L315,110.5 C315,136 306.5,161.5 290,178 C308.5,195.5 318,223 318,250.5 L318,293.5 Z M262,98.5 C262,81.5 261,69 259.5,60.5 C257.5,52 253,48 246,48 C240,48 236,51.5 234,59 C229.5,73.5 229,123 233,140.5 C234.5,149.5 239,154 246,154 C253,154 257.5,149.5 259.5,140.5 C261,132 262,118 262,98.5 L262,98.5 Z M265.5,272 C265.5,250 264.5,233.5 263,223 C261,212.5 255.5,207 246,207 C236.5,207 231,212.5 229.5,223 C225.5,244.5 226,298 231,314 C233.5,322.5 238.5,326.5 246,326.5 C255.5,326.5 261,321.5 263,312 C264.5,302.5 265.5,289 265.5,272 L265.5,272 Z" id="NUM-MASK-Copy-6" fill="#FFFFFF"></path>
    </g>
</svg>