<?xml version="1.0" encoding="UTF-8"?>
<svg width="316px" height="376px" viewBox="0 0 316 376" version="1.1" xmlns="http://www.w3.org/2000/svg" xmlns:xlink="http://www.w3.org/1999/xlink">
    <!-- Generator: Sketch 39.1 (31720) - http://www.bohemiancoding.com/sketch -->
    <title>NUM MASK Copy 7</title>
    <desc>Created with Sketch.</desc>
    <defs></defs>
    <g id="Home" stroke="none" stroke-width="1" fill="none" fill-rule="evenodd">
        <path d="M144.5,296.5 C144,311.5 141,325 135.5,336.5 C131,346.5 124,356 114,363.5 C104,371.5 90.5,376 72.5,376 C54.5,376 40.5,371.5 30.5,363.5 C20.5,356 14,346.5 9.5,336.5 C4,325 1,311.5 0.5,296.5 L0.5,80 C1,65.5 4,52 9.5,40.5 C14,30.5 20.5,20.5 30.5,13 C40.5,5.5 54.5,0.5 72.5,0.5 C90.5,0.5 104,5.5 114,13 C124,20.5 131,30.5 135.5,40.5 C141,52 144,65.5 144.5,80 L144.5,296.5 Z M90.5,80 C90.5,70 88.5,63 83.5,57 C81,54.5 77,53 72.5,53 C63,53 58.5,60 56.5,66.5 C55,70.5 54.5,75 54.5,80 L54.5,296.5 C54.5,307 57,314 62,319.5 C64.5,322 68,323.5 72.5,323.5 C82,323.5 86.5,317.5 88.5,310 C90,306.5 90.5,302 90.5,296.5 L90.5,80 Z M175,80 C175,71.5 176,51.5 185.5,33.5 C195,16 212,0.5 245.5,0.5 C278,0.5 296,16 305.5,33.5 C315,51.5 316,71.5 316,80 L316,289 C316,302.5 315.5,324 306,342 C296.5,360.5 279.5,376 245.5,376 C211.5,376 194.5,360.5 185,342 C175.5,324 175,302.5 175,289 L175,266 L229,266 C229,290.5 229.5,306.5 231.5,316 C233.5,325.5 237.5,329 245.5,329 C252,329 256.5,326 259,319.5 C261,313 262,303 262,289 L262,220 C252.5,225.5 244.5,229 235,229 C207,229 192,214.5 184,198 C176,181.5 175,161.5 175,151.5 L175,80 Z M262,64 C262,59.5 258,47.5 245.5,47.5 C234,47.5 229,59.5 229,64 L229,170.5 C229,175 234,187 245.5,187 C257,187 261.5,177.5 262,172 L262,64 Z" id="NUM-MASK-Copy-7" fill="#FFFFFF"></path>
    </g>
</svg>