<?xml version="1.0" encoding="UTF-8"?>
<svg width="271px" height="376px" viewBox="0 0 271 376" version="1.1" xmlns="http://www.w3.org/2000/svg" xmlns:xlink="http://www.w3.org/1999/xlink">
    <!-- Generator: Sketch 39.1 (31720) - http://www.bohemiancoding.com/sketch -->
    <title>NUM MASK Copy 8</title>
    <desc>Created with Sketch.</desc>
    <defs></defs>
    <g id="Home" stroke="none" stroke-width="1" fill="none" fill-rule="evenodd">
        <path d="M0,84 L0,49.5 C22.5,45 36,33.5 45.5,23.5 C50.5,17.5 54.5,11 57.5,4.5 L90,4.5 L90,372 L36,372 L36,84 L0,84 Z M270.5,296.5 C270,311.5 267,325 261.5,336.5 C257,346.5 250,356 240,363.5 C230,371.5 216.5,376 198.5,376 C180.5,376 166.5,371.5 156.5,363.5 C146.5,356 140,346.5 135.5,336.5 C130,325 127,311.5 126.5,296.5 L126.5,80 C127,65.5 130,52 135.5,40.5 C140,30.5 146.5,20.5 156.5,13 C166.5,5.5 180.5,0.5 198.5,0.5 C216.5,0.5 230,5.5 240,13 C250,20.5 257,30.5 261.5,40.5 C267,52 270,65.5 270.5,80 L270.5,296.5 Z M216.5,80 C216.5,70 214.5,63 209.5,57 C207,54.5 203,53 198.5,53 C189,53 184.5,60 182.5,66.5 C181,70.5 180.5,75 180.5,80 L180.5,296.5 C180.5,307 183,314 188,319.5 C190.5,322 194,323.5 198.5,323.5 C208,323.5 212.5,317.5 214.5,310 C216,306.5 216.5,302 216.5,296.5 L216.5,80 Z" id="NUM-MASK-Copy-8" fill="#FFFFFF"></path>
    </g>
</svg>