<?xml version="1.0" encoding="UTF-8"?>
<svg width="270px" height="372px" viewBox="0 0 270 372" version="1.1" xmlns="http://www.w3.org/2000/svg" xmlns:xlink="http://www.w3.org/1999/xlink">
    <!-- Generator: Sketch 39.1 (31720) - http://www.bohemiancoding.com/sketch -->
    <title>NUM MASK Copy 10</title>
    <desc>Created with Sketch.</desc>
    <defs></defs>
    <g id="Home" stroke="none" stroke-width="1" fill="none" fill-rule="evenodd">
        <path d="M0,84 L0,49.5 C22.5,45 36,33.5 45.5,23.5 C50.5,17.5 54.5,11 57.5,4.5 L90,4.5 L90,372 L36,372 L36,84 L0,84 Z M125,121 L125,95.5 C125,71 128.5,47 139,29.5 C149.5,12 167.5,0.5 197,0.5 C224.5,0.5 243,11 254,27 C265,43.5 269,66.5 269,92 C269,129.5 255,174 237.5,215.5 C219.5,257.5 198.5,295 184.5,318.5 L270,318.5 L270,372 L123.5,372 L123.5,318.5 C140,293 155,267 168.5,241 C180,219 191,194 199.5,168.5 C208,143 214.5,118 215,95.5 C215,85.5 214.5,74 212,65.5 C209.5,57 205,50.5 197,50.5 C189.5,50.5 185,56 182.5,64 C180,72.5 179,83.5 179,95.5 L179,121 L125,121 Z" id="NUM-MASK-Copy-10" fill="#FFFFFF"></path>
    </g>
</svg>